<svg width="132" height="289" viewBox="0 0 132 289" fill="none" xmlns="http://www.w3.org/2000/svg">
<path d="M130.499 246.7L129.499 246.7L130.499 246.7ZM96.4995 280.7L96.4995 281.7L96.4995 281.7L96.4995 280.7ZM0.292978 279.993C-0.0975419 280.383 -0.0975492 281.016 0.292967 281.407L6.65693 287.771C7.04746 288.162 7.68063 288.161 8.07115 287.771C8.46167 287.38 8.46168 286.747 8.07115 286.357L2.4143 280.7L8.07115 275.043C8.46167 274.653 8.46168 274.019 8.07115 273.629C7.68062 273.238 7.04746 273.238 6.65694 273.629L0.292978 279.993ZM129.499 -4.18862e-05L129.499 246.7L131.499 246.7L131.499 -4.01425e-05L129.499 -4.18862e-05ZM96.4995 279.7L1.00008 279.7L1.00008 281.7L96.4995 281.7L96.4995 279.7ZM129.499 246.7C129.499 264.925 114.725 279.7 96.4995 279.7L96.4995 281.7C115.829 281.7 131.499 266.03 131.499 246.7L129.499 246.7Z" fill="#00696D"/>
</svg>
