<svg width="138" height="330" viewBox="0 0 138 330" fill="none" xmlns="http://www.w3.org/2000/svg">
<path d="M41.4999 329L41.4999 330L41.4999 329ZM7.49989 295L8.49989 295L7.49989 295ZM8.20723 0.792953C7.8167 0.402433 7.18355 0.402439 6.79303 0.792968L0.429048 7.15691C0.0385271 7.54744 0.0385206 8.1806 0.42905 8.57112C0.819565 8.96165 1.45274 8.96166 1.84326 8.57113L7.50013 2.91428L13.157 8.57113C13.5475 8.96165 14.1807 8.96167 14.5712 8.57113C14.9617 8.18061 14.9617 7.54746 14.5712 7.15693L8.20723 0.792953ZM137.5 328L41.4999 328L41.4999 330L137.5 330L137.5 328ZM8.49989 295L8.50011 1.50007L6.50013 1.50007L6.49989 295L8.49989 295ZM41.4999 328C23.2745 328 8.49988 313.226 8.49989 295L6.49989 295C6.49987 314.33 22.1699 330 41.4999 330L41.4999 328Z" fill="#00696D"/>
</svg>
