<svg width="150" height="185" viewBox="0 0 150 185" fill="none" xmlns="http://www.w3.org/2000/svg">
<path id="Arrow 1" d="M107.932 1.86171L107.934 0.861711L107.932 1.86171ZM141.851 35.7816L142.851 35.7792L141.851 35.7816ZM141.493 183.771C141.884 184.16 142.517 184.159 142.907 183.768L149.256 177.389C149.645 176.997 149.644 176.364 149.252 175.974C148.861 175.585 148.228 175.586 147.838 175.978L142.195 181.648L136.525 176.004C136.133 175.615 135.5 175.616 135.11 176.008C134.721 176.399 134.722 177.032 135.114 177.422L141.493 183.771ZM0.113453 2.60762L107.929 2.86171L107.934 0.861711L0.118167 0.60763L0.113453 2.60762ZM140.851 35.7839L141.198 183.064L143.198 183.06L142.851 35.7792L140.851 35.7839ZM107.929 2.86171C126.094 2.90452 140.808 17.6192 140.851 35.7839L142.851 35.7792C142.806 16.5137 127.199 0.907115 107.934 0.861711L107.929 2.86171Z" fill="#00696D"/>
</svg>
