<svg width="130" height="195" viewBox="0 0 130 195" fill="none" xmlns="http://www.w3.org/2000/svg">
<path id="Arrow 4" d="M0.999953 42L-4.33618e-05 42L0.999953 42ZM35 8.00002L35 9.00002L35 8.00002ZM129.707 8.70719C130.097 8.31666 130.097 7.68349 129.707 7.29298L123.343 0.929009C122.952 0.538477 122.319 0.538475 121.929 0.929003C121.538 1.31953 121.538 1.9527 121.929 2.34321L127.586 8.00007L121.929 13.6569C121.538 14.0474 121.538 14.6806 121.929 15.0711C122.319 15.4617 122.952 15.4617 123.343 15.0711L129.707 8.70719ZM1.99983 195L1.99995 42L-4.33618e-05 42L-0.000166609 195L1.99983 195ZM35 9.00002L129 9.00008L129 7.00008L35 7.00002L35 9.00002ZM1.99995 42C1.99997 23.7746 16.7746 9.00001 35 9.00002L35 7.00002C15.67 7.00001 -3.45028e-05 22.6701 -4.33618e-05 42L1.99995 42Z" fill="#00696D"/>
</svg>
